<svg width="24" height="24" viewBox="0 0 24 24" fill="none" xmlns="http://www.w3.org/2000/svg">
<path d="M20.4533 5.98982C17.7031 3.93182 15.0682 3.98966 15.0682 3.98966L14.7989 4.29734C18.0684 5.27822 19.5878 6.72062 19.5878 6.72062C14.91 4.14518 8.95176 4.16366 4.08624 6.72062C4.08624 6.72062 5.66328 5.20118 9.12528 4.2203L8.93304 3.98942C8.93304 3.98942 6.31728 3.93182 3.54792 5.98958C3.54792 5.98958 0.77832 10.9708 0.77832 17.1061C0.77832 17.1061 2.394 19.8757 6.6444 20.0104C6.6444 20.0104 7.356 19.1641 7.93296 18.4333C5.49048 17.7025 4.5672 16.1831 4.5672 16.1831C6.10176 17.1433 7.65336 17.7443 9.58704 18.1257C12.733 18.7732 16.6462 18.1074 19.5689 16.1831C19.5689 16.1831 18.6072 17.7409 16.0877 18.4525C16.6646 19.1641 17.357 19.9912 17.357 19.9912C21.6074 19.8565 23.2229 17.0869 23.2229 17.1064C23.2226 10.971 20.4533 5.98982 20.4533 5.98982ZM8.41368 15.3177C7.33656 15.3177 6.45192 14.3752 6.45192 13.2021C6.53064 10.3924 10.3164 10.401 10.3754 13.2021C10.3754 14.3752 9.50976 15.3177 8.41368 15.3177ZM15.4334 15.3177C14.3563 15.3177 13.4717 14.3752 13.4717 13.2021C13.5581 10.3979 17.2966 10.3967 17.3952 13.2021C17.3952 14.3752 16.5298 15.3177 15.4334 15.3177Z" fill="#6665D2"/>
</svg>
