<svg width="24" height="24" viewBox="0 0 24 24" fill="none" xmlns="http://www.w3.org/2000/svg">
<g clip-path="url(#clip0_1_168)">
<path d="M1.50034 1.6328C-0.385665 3.5918 0.000335511 5.6728 0.000335511 11.9948C0.000335511 18.3308 -0.157664 19.4938 0.602336 21.0698C1.23734 22.3878 2.45034 23.3778 3.87834 23.7468C5.02234 24.0408 5.78234 23.9998 11.9783 23.9998C17.1723 23.9998 18.7883 24.0928 20.1353 23.7448C22.1313 23.2298 23.7553 21.6108 23.9773 18.7878C24.0083 18.3938 24.0083 5.6028 23.9763 5.2008C23.7403 2.1938 21.8893 0.460802 19.4503 0.109802C18.8903 0.0288023 18.7783 0.00480225 15.9103 -0.000197746C5.73734 0.00480225 3.50734 -0.448198 1.50034 1.6328Z" fill="url(#paint0_linear_1_168)"/>
<path d="M11.998 3.139C8.367 3.139 4.919 2.816 3.602 6.196C3.058 7.592 3.137 9.405 3.137 12.001C3.137 14.279 3.064 16.42 3.602 17.805C4.916 21.187 8.392 20.863 11.996 20.863C15.473 20.863 19.058 21.225 20.391 17.805C20.936 16.395 20.856 14.609 20.856 12.001C20.856 8.539 21.047 6.304 19.368 4.626C17.668 2.926 15.369 3.139 11.994 3.139H11.998ZM11.204 4.736C15.55 4.729 19.015 4.129 19.21 8.419C19.282 10.008 19.282 13.99 19.21 15.579C19.021 19.716 15.871 19.262 11.999 19.262C8.587 19.262 6.895 19.383 5.755 18.242C4.598 17.085 4.736 15.431 4.736 11.997C4.736 7.926 4.351 4.971 8.419 4.784C9.236 4.747 9.553 4.736 11.204 4.734V4.736ZM16.728 6.207C16.141 6.207 15.665 6.683 15.665 7.27C15.665 7.857 16.141 8.333 16.728 8.333C17.315 8.333 17.791 7.857 17.791 7.27C17.791 6.683 17.315 6.207 16.728 6.207ZM11.998 7.45C9.485 7.45 7.448 9.488 7.448 12.001C7.448 14.514 9.485 16.551 11.998 16.551C14.511 16.551 16.547 14.514 16.547 12.001C16.547 9.488 14.511 7.45 11.998 7.45ZM11.998 9.047C13.629 9.047 14.951 10.37 14.951 12.001C14.951 13.632 13.629 14.955 11.998 14.955C10.367 14.955 9.045 13.632 9.045 12.001C9.045 10.369 10.367 9.047 11.998 9.047Z" fill="white"/>
</g>
<defs>
<linearGradient id="paint0_linear_1_168" x1="1.5649" y1="22.4431" x2="23.8428" y2="3.16101" gradientUnits="userSpaceOnUse">
<stop stop-color="#FFDD55"/>
<stop offset="0.5" stop-color="#FF543E"/>
<stop offset="1" stop-color="#C837AB"/>
</linearGradient>
<clipPath id="clip0_1_168">
<rect width="24" height="24" fill="white"/>
</clipPath>
</defs>
</svg>
