<svg width="24" height="24" viewBox="0 0 24 24" fill="none" xmlns="http://www.w3.org/2000/svg">
<path d="M21.2932 2.91385C18.3403 4.13689 5.67837 9.38161 2.17989 10.811C-0.166354 11.7266 1.20717 12.5851 1.20717 12.5851C1.20717 12.5851 3.20997 13.2718 4.92693 13.7868C6.64365 14.3018 7.55925 13.7297 7.55925 13.7297L15.628 8.29321C18.4893 6.34753 17.8027 7.94977 17.1158 8.63665C15.628 10.1246 13.1673 12.4706 11.1072 14.3592C10.1916 15.1603 10.6492 15.847 11.05 16.1904C12.5378 17.4494 16.601 20.0246 16.8297 20.1962C18.0386 21.0521 20.4165 22.284 20.7782 19.6812L22.2088 10.6968C22.6668 7.66393 23.1244 4.85977 23.1816 4.05865C23.3534 2.11273 21.2932 2.91385 21.2932 2.91385Z" fill="#1B92D1"/>
</svg>
