<svg width="24" height="20" viewBox="0 0 24 20" fill="none" xmlns="http://www.w3.org/2000/svg">
<path d="M24 2.3085C23.0972 2.70225 22.1424 2.96394 21.165 3.0855C22.195 2.47444 22.9651 1.50685 23.3295 0.365999C22.365 0.938004 21.3098 1.34081 20.2095 1.557C19.5349 0.836668 18.6592 0.335878 17.6962 0.119691C16.7333 -0.0964957 15.7276 -0.0180852 14.8098 0.344735C13.892 0.707556 13.1045 1.33802 12.5496 2.1542C11.9948 2.97039 11.6982 3.93458 11.6985 4.9215C11.6985 5.3115 11.7315 5.6865 11.8125 6.0435C9.85512 5.94753 7.94004 5.43952 6.19245 4.55268C4.44487 3.66583 2.90414 2.42012 1.671 0.896999C1.03923 1.97979 0.843913 3.26266 1.12482 4.4844C1.40574 5.70615 2.14175 6.77488 3.183 7.473C2.40414 7.45211 1.64171 7.24427 0.96 6.867V6.921C0.961305 8.05715 1.354 9.15815 2.07198 10.0387C2.78995 10.9192 3.78937 11.5255 4.902 11.7555C4.48108 11.8664 4.04728 11.9209 3.612 11.9175C3.29938 11.9231 2.98708 11.8949 2.6805 11.8335C2.99841 12.81 3.61124 13.664 4.43459 14.2778C5.25795 14.8917 6.25134 15.2351 7.278 15.261C5.53641 16.6231 3.38846 17.3619 1.1775 17.3595C0.774 17.3595 0.387 17.3415 0 17.292C2.24982 18.7418 4.87151 19.5087 7.548 19.5C16.602 19.5 21.552 12 21.552 5.499C21.552 5.2815 21.5445 5.0715 21.534 4.863C22.5044 4.16848 23.3401 3.30282 24 2.3085Z" fill="#03A9F4"/>
</svg>
